<svg xmlns:xlink="http://www.w3.org/1999/xlink" class="IconHome_icon__kgL6z" width="40" height="38" viewBox="0 0 40 38" fill="none" xmlns="http://www.w3.org/2000/svg"><g id="Group 84" fill="none"><path id="Vector" d="M13 37.2402V26.1902H12.5C8.97 26.1902 6 24.9102 3.6 22.3602C1.2 19.8102 0 16.7702 0 13.2402C0 9.71023 1.26 6.53023 3.78 4.02023C6.29 1.50023 9.37 0.240234 13 0.240234H24.66L24.48 3.23023H15.65H13C10.23 3.23023 7.87 4.21023 5.92 6.16023C3.97 8.11023 2.99 10.4702 2.99 13.2402C2.99 16.0102 3.9 18.3202 5.72 20.2902C7.54 22.2602 9.8 23.2402 12.5 23.2402H16V29.9902L22.8 23.2402H27.05C29.82 23.2402 32.17 22.2602 34.1 20.3102C36.03 18.3602 37 15.9802 37 13.1802C37 10.3802 36.02 8.06023 34.07 6.13023C32.12 4.20023 29.76 3.23023 26.99 3.23023H24.34V0.240234H26.99C30.59 0.240234 33.66 1.50023 36.19 4.02023C38.72 6.54023 39.99 9.60023 39.99 13.2002C39.99 16.8002 38.73 19.9202 36.21 22.4502C33.69 24.9802 30.63 26.2502 27.03 26.2502H24.03L12.98 37.2502L13 37.2402Z" fill="#39AAD1"></path><path id="Vector_2" d="M10.95 16.1402C12.5792 16.1402 13.9 14.8195 13.9 13.1902C13.9 11.561 12.5792 10.2402 10.95 10.2402C9.32076 10.2402 8 11.561 8 13.1902C8 14.8195 9.32076 16.1402 10.95 16.1402Z" fill="#39AAD1"></path><path id="Vector_3" d="M19.7996 16.1402C21.4288 16.1402 22.7496 14.8195 22.7496 13.1902C22.7496 11.561 21.4288 10.2402 19.7996 10.2402C18.1704 10.2402 16.8496 11.561 16.8496 13.1902C16.8496 14.8195 18.1704 16.1402 19.7996 16.1402Z" fill="#39AAD1"></path><path id="Vector_4" d="M28.6601 16.1402C30.2893 16.1402 31.6101 14.8195 31.6101 13.1902C31.6101 11.561 30.2893 10.2402 28.6601 10.2402C27.0308 10.2402 25.7101 11.561 25.7101 13.1902C25.7101 14.8195 27.0308 16.1402 28.6601 16.1402Z" fill="#39AAD1"></path></g></svg>