<svg xmlns:xlink="http://www.w3.org/1999/xlink" class="IconHome_icon__kgL6z" width="32" height="40" viewBox="0 0 32 40" fill="none" xmlns="http://www.w3.org/2000/svg"><path id="Vector" d="M16 22.5402L20.15 25.6902C20.3167 25.7902 20.475 25.7902 20.625 25.6902C20.775 25.5902 20.8167 25.4569 20.75 25.2902L19 20.1402L23.35 17.0402C23.5167 16.9402 23.5667 16.7986 23.5 16.6152C23.4333 16.4319 23.3167 16.3402 23.15 16.3402H17.9L16.35 11.2902C16.2833 11.1236 16.1667 11.0402 16 11.0402C15.8333 11.0402 15.7167 11.1236 15.65 11.2902L14.1 16.3402H8.85C8.68333 16.3402 8.56667 16.4319 8.5 16.6152C8.43333 16.7986 8.48333 16.9402 8.65 17.0402L12.9 20.1402L11.1 25.2902C11.0333 25.4569 11.075 25.5986 11.225 25.7152C11.375 25.8319 11.5333 25.8402 11.7 25.7402L16 22.5402ZM16 39.8902C15.8333 39.8902 15.675 39.8736 15.525 39.8402C15.375 39.8069 15.2167 39.7569 15.05 39.6902C10.4167 38.1236 6.75 35.3152 4.05 31.2652C1.35 27.2152 0 22.7736 0 17.9402V8.14023C0 7.5069 0.183333 6.9319 0.55 6.41523C0.916667 5.89857 1.38333 5.52357 1.95 5.29023L14.95 0.440234C15.3167 0.306901 15.6667 0.240234 16 0.240234C16.3333 0.240234 16.6833 0.306901 17.05 0.440234L30.05 5.29023C30.6167 5.52357 31.0833 5.89857 31.45 6.41523C31.8167 6.9319 32 7.5069 32 8.14023V17.9402C32 22.7736 30.65 27.2152 27.95 31.2652C25.25 35.3152 21.5833 38.1236 16.95 39.6902C16.7833 39.7569 16.625 39.8069 16.475 39.8402C16.325 39.8736 16.1667 39.8902 16 39.8902ZM16 36.9402C19.8333 35.6736 22.9583 33.2819 25.375 29.7652C27.7917 26.2486 29 22.3069 29 17.9402V8.14023L16 3.24023L3 8.14023V17.9402C3 22.3069 4.20833 26.2486 6.625 29.7652C9.04167 33.2819 12.1667 35.6736 16 36.9402Z" fill="#39AAD1"></path></svg>