<svg xmlns:xlink="http://www.w3.org/1999/xlink" class="IconHome_icon__kgL6z" width="38" height="28" viewBox="0 0 38 28" fill="none" xmlns="http://www.w3.org/2000/svg"><path id="Vector" d="M6.22917 23.553L13.8 15.9821C14.0875 15.6946 14.4229 15.5589 14.8062 15.5748C15.1896 15.5908 15.5312 15.7425 15.8312 16.03C16.1062 16.3175 16.2437 16.653 16.2437 17.0363C16.2437 17.4196 16.1 17.755 15.8125 18.0425L7.23542 26.6196C6.94792 26.9071 6.6125 27.0509 6.22917 27.0509C5.84583 27.0509 5.51042 26.9071 5.22292 26.6196L0.43125 21.828C0.14375 21.5405 0 21.205 0 20.8217C0 20.4384 0.14375 20.103 0.43125 19.8155C0.71875 19.528 1.05417 19.3922 1.4375 19.4082C1.82083 19.4241 2.15625 19.5599 2.44375 19.8155L6.22917 23.553ZM6.22917 8.21962L13.8 0.648787C14.0875 0.361287 14.4229 0.225523 14.8062 0.241495C15.1896 0.257468 15.5312 0.409204 15.8312 0.696704C16.1062 0.984204 16.2437 1.31962 16.2437 1.70295C16.2437 2.08629 16.1 2.4217 15.8125 2.7092L7.23542 11.2863C6.94792 11.5738 6.6125 11.7175 6.22917 11.7175C5.84583 11.7175 5.51042 11.5738 5.22292 11.2863L0.43125 6.49462C0.14375 6.20712 0 5.8717 0 5.48837C0 5.10504 0.14375 4.76962 0.43125 4.48212C0.71875 4.19462 1.05417 4.05886 1.4375 4.07483C1.82083 4.0908 2.15625 4.22656 2.44375 4.48212L6.22917 8.21962ZM21.9458 23.9842C21.5385 23.9842 21.1971 23.8456 20.9216 23.5685C20.6461 23.2914 20.5083 22.948 20.5083 22.5383C20.5083 22.1286 20.6461 21.788 20.9216 21.5165C21.1971 21.245 21.5385 21.1092 21.9458 21.1092H36.3208C36.7281 21.1092 37.0695 21.2478 37.3451 21.5249C37.6206 21.802 37.7583 22.1454 37.7583 22.5551C37.7583 22.9648 37.6206 23.3054 37.3451 23.5769C37.0695 23.8484 36.7281 23.9842 36.3208 23.9842H21.9458ZM21.9458 8.65087C21.5385 8.65087 21.1971 8.51231 20.9216 8.23519C20.6461 7.95804 20.5083 7.61464 20.5083 7.20499C20.5083 6.7953 20.6461 6.45469 20.9216 6.18316C21.1971 5.91163 21.5385 5.77587 21.9458 5.77587H36.3208C36.7281 5.77587 37.0695 5.91443 37.3451 6.19155C37.6206 6.4687 37.7583 6.8121 37.7583 7.22176C37.7583 7.63144 37.6206 7.97205 37.3451 8.24358C37.0695 8.51511 36.7281 8.65087 36.3208 8.65087H21.9458Z" fill="#39AAD1"></path></svg>